#N canvas -9 -9 1920 978 16;
#X obj 550 309 adc~;
#X obj 575 735 dac~;
#X obj 616 427 *~;
#X obj 733 368 dbtorms;
#X obj 734 314 nbx 5 14 -1e+037 1e+037 0 0 empty empty empty 0 -8 0
10 -262144 -1 -1 86 256;
#X obj 560 422 *~;
#X connect 0 0 5 0;
#X connect 0 1 2 0;
#X connect 2 0 1 1;
#X connect 3 0 2 1;
#X connect 3 0 5 1;
#X connect 4 0 3 0;
#X connect 5 0 1 0;
