#N canvas 0 0 1920 978 16;
#X obj 550 309 adc~;
#X obj 575 735 dac~;
#X obj 733 368 dbtorms;
#X obj 734 314 nbx 5 14 -1e+037 1e+037 0 0 empty empty empty 0 -8 0
10 -262144 -1 -1 103 256;
#X obj 549 455 *~;
#X obj 349 544 osc~;
#X obj 308 473 nbx 5 14 -1e+037 1e+037 0 0 empty empty empty 0 -8 0
10 -262144 -1 -1 316 256;
#X obj 368 713 *~;
#X obj 702 607 osc~;
#X obj 694 539 nbx 5 14 -1e+037 1e+037 0 0 empty empty empty 0 -8 0
10 -262144 -1 -1 270 256;
#X obj 690 680 *~;
#X connect 0 0 4 0;
#X connect 2 0 4 1;
#X connect 3 0 2 0;
#X connect 4 0 7 1;
#X connect 4 0 10 1;
#X connect 5 0 7 0;
#X connect 6 0 5 0;
#X connect 7 0 1 0;
#X connect 8 0 10 0;
#X connect 9 0 8 0;
#X connect 10 0 1 1;
