#N canvas -9 -9 1920 978 16;
#X obj 816 899 output~;
#X obj 659 825 desc192voice;
#X obj 908 833 desc192voice;
#X obj 563 894 print L exceeded 192;
#X obj 957 917 print R exceeded 192;
#X msg 1168 794 0.9999;
#X msg 891 663 0.9999;
#X obj 1175 267 float;
#X obj 1213 306 moses 0;
#X obj 1191 75 bng 15 250 50 0 empty empty empty 17 7 0 10 -262144
-1 -1;
#X floatatom 1357 376 5 0 0 0 - - -;
#X obj 1301 234 bng 15 250 50 0 empty empty empty 17 7 0 10 -262144
-1 -1;
#X floatatom 1464 384 5 0 0 0 - - -;
#X obj 1274 547 osc~;
#X obj 1269 483 * 500;
#X obj 789 501 osc~;
#X obj 802 437 * 500;
#X floatatom 1027 205 5 0 0 0 - - -;
#X obj 1193 172 metro 20;
#X obj 1364 295 asin;
#X obj 749 231 float;
#X obj 787 270 moses 0;
#X floatatom 931 340 5 0 0 0 - - -;
#X floatatom 1038 348 5 0 0 0 - - -;
#X obj 938 259 asin;
#X obj 794 163 del 1;
#X msg 1286 98 stop;
#X floatatom 851 103 5 0 0 0 - - -;
#X connect 1 0 3 0;
#X connect 1 1 0 0;
#X connect 2 0 4 0;
#X connect 2 1 0 1;
#X connect 5 0 2 1;
#X connect 6 0 1 1;
#X connect 7 0 8 0;
#X connect 8 1 10 0;
#X connect 8 1 14 0;
#X connect 8 1 19 0;
#X connect 9 0 18 0;
#X connect 13 0 0 1;
#X connect 14 0 13 0;
#X connect 14 0 2 0;
#X connect 15 0 0 0;
#X connect 16 0 15 0;
#X connect 16 0 1 0;
#X connect 17 0 7 0;
#X connect 17 0 20 0;
#X connect 18 0 11 0;
#X connect 18 0 7 0;
#X connect 18 0 25 0;
#X connect 19 0 7 1;
#X connect 19 0 12 0;
#X connect 20 0 21 0;
#X connect 21 1 22 0;
#X connect 21 1 24 0;
#X connect 21 1 16 0;
#X connect 24 0 20 1;
#X connect 24 0 23 0;
#X connect 25 0 20 0;
#X connect 26 0 18 0;
#X connect 27 0 25 1;
