#N canvas 755 92 905 808 16;
#X obj 237 142 bng 15 250 50 0 empty empty empty 17 7 0 10 -262144
-1 -1;
#X obj 466 614 osc~;
#X msg 358 249 stop;
#X obj 509 195 float;
#X obj 37 -13 inlet;
#X obj 461 699 outlet~;
#X obj 170 544 outlet;
#X obj 169 490 spigot;
#X obj 237 96 spigot 1;
#X obj 280 411 bng 15 250 50 0 empty empty empty 17 7 0 10 -262144
-1 -1;
#X obj 521 349 sel 1;
#X obj 462 651 *~ 0.5;
#X obj 226 452 tgl 15 0 empty empty empty 17 7 0 10 -262144 -1 -1 0
1;
#X obj 696 52 inlet;
#X obj 506 130 metro 1;
#X obj 626 576 dbtorms;
#X obj 748 356 float;
#X obj 696 478 /;
#X obj 681 523 * 100;
#X obj 563 659 line;
#X msg 589 626 \$1 50;
#X obj 571 196 * 0.9999;
#X obj 526 318 < 200;
#X obj 329 27 <= 200;
#X msg 87 24 \$1 \$1;
#X obj 128 58 unpack f f;
#X floatatom 21 48 5 0 0 0 - - -;
#X connect 0 0 12 0;
#X connect 0 0 14 0;
#X connect 1 0 11 0;
#X connect 2 0 14 0;
#X connect 3 0 1 0;
#X connect 3 0 17 0;
#X connect 3 0 21 0;
#X connect 3 0 22 0;
#X connect 3 0 23 0;
#X connect 4 0 24 0;
#X connect 7 0 6 0;
#X connect 8 0 16 0;
#X connect 8 0 3 0;
#X connect 8 0 0 0;
#X connect 9 0 12 0;
#X connect 10 0 9 0;
#X connect 10 0 2 0;
#X connect 11 0 5 0;
#X connect 12 0 7 1;
#X connect 13 0 21 1;
#X connect 14 0 3 0;
#X connect 15 0 20 0;
#X connect 16 0 17 1;
#X connect 17 0 18 0;
#X connect 18 0 15 0;
#X connect 19 0 11 1;
#X connect 20 0 19 0;
#X connect 21 0 3 1;
#X connect 22 0 10 0;
#X connect 23 0 8 1;
#X connect 24 0 25 0;
#X connect 25 0 8 0;
#X connect 25 1 7 0;
#X connect 26 0 24 0;
