#N canvas -1163 495 454 383 16;
#X obj 50 22 inlet;
#X obj 351 95 inlet;
#X obj 45 312 outlet;
#X obj 313 290 outlet~;
#X obj 152 152 desc96voice;
#X obj 140 216 desc96voice;
#X connect 0 0 4 0;
#X connect 1 0 4 1;
#X connect 1 0 5 1;
#X connect 4 0 5 0;
#X connect 4 1 3 0;
#X connect 5 0 2 0;
#X connect 5 1 3 0;
