#N canvas 0 184 905 808 16;
#X obj 272 181 bng 15 250 50 0 empty empty empty 17 7 0 10 -262144
-1 -1;
#X obj 501 653 osc~;
#X msg 393 288 stop;
#X obj 544 234 float;
#X obj 37 -13 inlet;
#X obj 496 738 outlet~;
#X obj 205 583 outlet;
#X obj 204 529 spigot;
#X obj 272 135 spigot 1;
#X obj 556 388 sel 1;
#X obj 497 690 *~ 0.5;
#X obj 261 491 tgl 15 0 empty empty empty 17 7 0 10 -262144 -1 -1 0
1;
#X obj 731 91 inlet;
#X obj 541 169 metro 1;
#X obj 661 615 dbtorms;
#X obj 783 395 float;
#X obj 731 517 /;
#X obj 598 698 line;
#X msg 624 665 \$1 50;
#X obj 606 235 * 0.9999;
#X msg 122 63 \$1 \$1;
#X obj 163 97 unpack f f;
#X floatatom 75 113 5 0 0 0 - - -;
#X floatatom 114 639 5 0 0 0 - - -;
#X msg 287 398 0;
#X obj 288 364 loadbang;
#X obj 364 66 <= 20;
#X obj 561 357 < 20;
#X floatatom 677 298 5 0 0 0 - - -;
#X obj 34 25 moses 21;
#X msg 389 117 1;
#X obj 716 562 * 100;
#X connect 0 0 11 0;
#X connect 0 0 13 0;
#X connect 1 0 10 0;
#X connect 2 0 13 0;
#X connect 3 0 1 0;
#X connect 3 0 19 0;
#X connect 3 0 26 0;
#X connect 3 0 27 0;
#X connect 3 0 28 0;
#X connect 3 0 16 0;
#X connect 4 0 29 0;
#X connect 7 0 6 0;
#X connect 7 0 23 0;
#X connect 8 0 15 0;
#X connect 8 0 3 0;
#X connect 8 0 0 0;
#X connect 9 0 2 0;
#X connect 9 0 30 0;
#X connect 9 0 11 0;
#X connect 10 0 5 0;
#X connect 11 0 7 1;
#X connect 12 0 19 1;
#X connect 13 0 3 0;
#X connect 14 0 18 0;
#X connect 15 0 16 1;
#X connect 16 0 31 0;
#X connect 18 0 17 0;
#X connect 19 0 3 1;
#X connect 20 0 21 0;
#X connect 21 0 8 0;
#X connect 21 1 7 0;
#X connect 22 0 29 0;
#X connect 24 0 11 0;
#X connect 25 0 24 0;
#X connect 26 0 8 1;
#X connect 27 0 9 0;
#X connect 29 1 20 0;
#X connect 30 0 8 1;
#X connect 31 0 14 0;
