#N canvas 1069 232 560 523 16;
#X obj 153 38 inlet;
#X obj 353 24 inlet;
#X obj 135 416 outlet;
#X obj 355 413 outlet~;
#X obj 194 196 desc48voice;
#X obj 175 274 desc48voice;
#X connect 0 0 4 0;
#X connect 1 0 4 1;
#X connect 1 0 5 1;
#X connect 4 0 5 0;
#X connect 4 1 3 0;
#X connect 5 0 2 0;
#X connect 5 1 3 0;
