#N canvas -908 451 391 451 10;
#X obj 46 27 inlet;
#X obj 294 72 inlet;
#X obj 58 348 outlet;
#X obj 204 344 outlet~;
#X floatatom 48 167 5 0 0 0 - - -;
#X floatatom 31 208 5 0 0 0 - - -;
#X floatatom 19 261 5 0 0 0 - - -;
#X floatatom 136 71 5 0 0 0 - - -;
#X obj 97 251 desc;
#X obj 124 206 desc;
#X obj 157 161 desc;
#X connect 0 0 10 0;
#X connect 1 0 8 1;
#X connect 1 0 9 1;
#X connect 1 0 10 1;
#X connect 7 0 10 0;
#X connect 8 0 2 0;
#X connect 8 0 6 0;
#X connect 8 1 3 0;
#X connect 9 0 5 0;
#X connect 9 0 8 0;
#X connect 9 1 3 0;
#X connect 10 0 4 0;
#X connect 10 0 9 0;
#X connect 10 1 3 0;
