#N canvas 0 0 1920 1080 16;
#X floatatom 149 155 5 0 0 0 - - -;
#X obj 398 255 mtof;
#X floatatom 588 91 5 0 0 0 - - -;
#X floatatom 244 156 5 0 0 0 - - -;
#X floatatom 343 160 5 0 0 0 - - -;
#X floatatom 428 155 5 0 0 0 - - -;
#X obj 261 38 bng 15 250 50 0 empty empty empty 17 7 0 10 -262144 -1
-1;
#X obj 554 241 * 1;
#X obj 600 159 * 0.1;
#X obj 816 899 output~;
#X obj 659 825 desc192voice;
#X obj 908 833 desc192voice;
#X obj 563 894 print L exceeded 192;
#X obj 957 917 print R exceeded 192;
#X msg 1168 794 0.9999;
#X msg 980 742 0.9999;
#X obj 1187 733 * 0.9999;
#X obj 1175 267 float;
#X obj 1213 306 moses 0;
#X obj 1191 75 bng 15 250 50 0 empty empty empty 17 7 0 10 -262144
-1 -1;
#X floatatom 1357 376 5 0 0 0 - - -;
#X floatatom 1106 430 5 0 0 0 - - -;
#X obj 1301 234 bng 15 250 50 0 empty empty empty 17 7 0 10 -262144
-1 -1;
#X floatatom 1464 384 5 0 0 0 - - -;
#X obj 1159 353 tan;
#X obj 1274 547 osc~;
#X obj 1269 483 * 500;
#X obj 1176 543 osc~;
#X obj 1189 479 * 500;
#X floatatom 1055 181 5 0 0 0 - - -;
#X obj 1364 295 tan;
#X obj 1193 172 metro 20;
#X connect 0 0 1 0;
#X connect 1 0 7 0;
#X connect 2 0 8 0;
#X connect 3 0 1 0;
#X connect 4 0 1 0;
#X connect 5 0 1 0;
#X connect 6 0 0 0;
#X connect 6 0 3 0;
#X connect 6 0 4 0;
#X connect 6 0 5 0;
#X connect 8 0 7 1;
#X connect 10 0 12 0;
#X connect 10 1 9 0;
#X connect 11 0 13 0;
#X connect 11 1 9 1;
#X connect 14 0 11 1;
#X connect 15 0 10 1;
#X connect 17 0 18 0;
#X connect 18 0 24 0;
#X connect 18 0 28 0;
#X connect 18 1 20 0;
#X connect 18 1 26 0;
#X connect 18 1 30 0;
#X connect 19 0 31 0;
#X connect 24 0 17 1;
#X connect 24 0 21 0;
#X connect 25 0 9 1;
#X connect 26 0 25 0;
#X connect 26 0 11 0;
#X connect 27 0 9 0;
#X connect 28 0 27 0;
#X connect 28 0 10 0;
#X connect 29 0 17 0;
#X connect 30 0 17 1;
#X connect 30 0 23 0;
#X connect 31 0 22 0;
#X connect 31 0 17 0;
