#N canvas 473 164 634 675 16;
#X obj 143 28 inlet;
#X obj 343 14 inlet;
#X obj 93 586 outlet;
#X obj 387 589 outlet~;
#X obj 420 93 desc;
#X obj 392 126 desc;
#X obj 373 158 desc;
#X obj 346 192 desc;
#X obj 325 225 desc;
#X obj 311 262 desc;
#X obj 284 295 desc;
#X obj 255 328 desc;
#X obj 233 363 desc;
#X obj 206 394 desc;
#X obj 181 429 desc;
#X obj 147 467 desc;
#X connect 0 0 4 0;
#X connect 1 0 4 1;
#X connect 1 0 5 1;
#X connect 1 0 6 1;
#X connect 1 0 7 1;
#X connect 1 0 8 1;
#X connect 1 0 9 1;
#X connect 1 0 10 1;
#X connect 1 0 11 1;
#X connect 1 0 12 1;
#X connect 1 0 13 1;
#X connect 1 0 14 1;
#X connect 1 0 15 1;
#X connect 4 0 5 0;
#X connect 4 1 3 0;
#X connect 5 0 6 0;
#X connect 5 1 3 0;
#X connect 6 0 7 0;
#X connect 6 1 3 0;
#X connect 7 0 8 0;
#X connect 7 1 3 0;
#X connect 8 0 9 0;
#X connect 8 1 3 0;
#X connect 9 0 10 0;
#X connect 9 1 3 0;
#X connect 10 0 11 0;
#X connect 10 1 3 0;
#X connect 11 0 12 0;
#X connect 11 1 3 0;
#X connect 12 0 13 0;
#X connect 12 1 3 0;
#X connect 13 0 14 0;
#X connect 13 1 3 0;
#X connect 14 0 15 0;
#X connect 14 1 3 0;
#X connect 15 0 2 0;
#X connect 15 1 3 0;
