#N canvas -1865 66 1747 978 16;
#X floatatom 149 155 5 0 0 0 - - -;
#X obj 398 255 mtof;
#X floatatom 588 91 5 0 0 0 - - -;
#X floatatom 244 156 5 0 0 0 - - -;
#X floatatom 343 160 5 0 0 0 - - -;
#X floatatom 428 155 5 0 0 0 - - -;
#X obj 261 38 bng 15 250 50 0 empty empty empty 17 7 0 10 -262144 -1
-1;
#X obj 554 241 * 1;
#X obj 600 159 * 0.1;
#X obj 816 899 output~;
#X obj 848 81 midiparse;
#X obj 848 46 midiin;
#X obj 848 406 unpack f f;
#X floatatom 848 445 5 0 0 0 - - -;
#X floatatom 933 445 5 0 0 0 - - -;
#X text 847 466 pitch;
#X text 931 467 velocity;
#X text 955 406 note on messages;
#X obj 859 316 unpack f f;
#X floatatom 859 355 5 0 0 0 - - -;
#X floatatom 943 355 5 0 0 0 - - -;
#X text 857 375 aftert;
#X text 943 378 pitch;
#X text 960 317 poly aftertouch messages;
#X obj 870 234 unpack f f;
#X floatatom 870 273 5 0 0 0 - - -;
#X floatatom 955 273 5 0 0 0 - - -;
#X text 869 293 value;
#X text 955 293 ctrl nr;
#X text 973 235 controller messages;
#X floatatom 881 203 5 0 0 0 - - -;
#X floatatom 892 175 5 0 0 0 - - -;
#X floatatom 903 145 5 0 0 0 - - -;
#X floatatom 915 115 5 0 0 0 - - -;
#X text 942 203 program change;
#X text 961 146 pitch bend;
#X text 951 177 aftertouch;
#X text 970 114 channel number;
#X obj 787 611 mtof;
#X obj 830 561 spigot;
#X obj 900 681 tgl 15 0 empty empty empty 17 7 0 10 -262144 -1 -1 0
1;
#X obj 901 650 bng 15 250 50 0 empty empty empty 17 7 0 10 -262144
-1 -1;
#X obj 725 719 spigot;
#X obj 870 681 tgl 15 0 empty empty empty 17 7 0 10 -262144 -1 -1 1
1;
#X obj 842 724 spigot;
#X obj 974 631 loadbang;
#X msg 967 663 1;
#X obj 659 825 desc192voice;
#X obj 908 833 desc192voice;
#X obj 563 894 print L exceeded 192;
#X obj 957 917 print R exceeded 192;
#X floatatom 728 767 5 0 0 0 - - -;
#X floatatom 802 769 5 0 0 0 - - -;
#X msg 1089 719 0.9991;
#X msg 1118 784 0.992;
#X connect 0 0 1 0;
#X connect 1 0 7 0;
#X connect 2 0 8 0;
#X connect 3 0 1 0;
#X connect 4 0 1 0;
#X connect 5 0 1 0;
#X connect 6 0 0 0;
#X connect 6 0 3 0;
#X connect 6 0 4 0;
#X connect 6 0 5 0;
#X connect 8 0 7 1;
#X connect 10 0 12 0;
#X connect 10 1 18 0;
#X connect 10 2 24 0;
#X connect 10 3 30 0;
#X connect 10 4 31 0;
#X connect 10 5 32 0;
#X connect 10 6 33 0;
#X connect 11 0 10 0;
#X connect 12 0 13 0;
#X connect 12 1 14 0;
#X connect 13 0 39 0;
#X connect 14 0 39 1;
#X connect 18 0 19 0;
#X connect 18 1 20 0;
#X connect 24 0 25 0;
#X connect 24 1 26 0;
#X connect 38 0 44 0;
#X connect 38 0 42 0;
#X connect 38 0 41 0;
#X connect 39 0 38 0;
#X connect 40 0 44 1;
#X connect 41 0 40 0;
#X connect 41 0 43 0;
#X connect 42 0 47 0;
#X connect 42 0 51 0;
#X connect 43 0 42 1;
#X connect 44 0 48 0;
#X connect 44 0 52 0;
#X connect 45 0 46 0;
#X connect 46 0 40 0;
#X connect 47 0 49 0;
#X connect 47 1 9 0;
#X connect 48 0 50 0;
#X connect 48 1 9 1;
#X connect 53 0 47 1;
#X connect 54 0 48 1;
