#N canvas 955 57 878 849 10;
#X obj 249 199 dumpOSC 7400;
#X obj 94 270 print;
#X floatatom 37 356 5 0 0 0 - - -;
#X obj 347 809 dac~;
#X obj 315 745 *~;
#X obj 703 756 dbtorms;
#X floatatom 709 713 5 0 0 0 - - -;
#X obj 247 233 OSCroute /AFF;
#X obj 37 323 OSCroute /Excitement;
#X obj 230 322 OSCroute /Meditation;
#X floatatom 231 354 5 0 0 0 - - -;
#X obj 356 556 osc~;
#X obj 316 413 bng 15 250 50 0 empty empty empty 17 7 0 10 -262144
-1 -1;
#X floatatom 383 508 5 0 0 0 - - -;
#X obj 331 524 -;
#X msg 281 492 5;
#X obj 330 645 *~;
#X obj 319 440 * 5;
#X obj 164 551 osc~;
#X obj 124 408 bng 15 250 50 0 empty empty empty 17 7 0 10 -262144
-1 -1;
#X floatatom 191 503 5 0 0 0 - - -;
#X obj 145 612 *~;
#X obj 127 435 * 5;
#X floatatom 406 365 5 0 0 0 - - -;
#X obj 400 307 OSCroute /Engaged;
#X obj 400 331 OSCroute /Bored;
#X obj 583 539 osc~;
#X obj 543 396 bng 15 250 50 0 empty empty empty 17 7 0 10 -262144
-1 -1;
#X floatatom 610 491 5 0 0 0 - - -;
#X obj 564 600 *~;
#X obj 546 423 * 5;
#X obj 62 553 mtof;
#X obj 251 570 mtof;
#X obj 491 553 osc~ 800;
#X obj 486 518 mtof;
#X obj 427 458 bng 15 250 50 0 empty empty empty 17 7 0 10 -262144
-1 -1;
#X obj 487 460 bng 15 250 50 0 empty empty empty 17 7 0 10 -262144
-1 -1;
#X msg 499 491 77;
#X msg 447 490 76;
#X obj 578 212 OSCroute /EXP;
#X obj 587 243 OSCroute /BLINK;
#X floatatom 532 278 5 0 0 0 - - -;
#X obj 560 320 spigot;
#X obj 591 354 bng 15 250 50 0 empty empty empty 17 7 0 10 -262144
-1 -1;
#X obj 756 577 dbtorms;
#X floatatom 762 534 5 0 0 0 - - -;
#X obj 721 490 *~;
#X obj 398 776 *~;
#X msg 707 453 0;
#X msg 666 454 1;
#X obj 758 465 osc~ 4000;
#X obj 676 424 delay 100;
#X obj 735 351 delay 100;
#X msg 782 431 2000;
#X msg 251 540 73;
#X obj 256 605 osc~;
#X obj 67 588 osc~;
#X obj 439 432 moses 0.5;
#X obj 17 460 bng 15 250 50 0 empty empty empty 17 7 0 10 -262144 -1
-1;
#X obj 77 462 bng 15 250 50 0 empty empty empty 17 7 0 10 -262144 -1
-1;
#X obj 29 434 moses 0.5;
#X msg 38 505 80;
#X msg 90 506 85;
#X obj 151 648 *~ 0.4;
#X obj 570 636 *~ 0.4;
#X obj 462 90 OSCroute /COG;
#X floatatom 538 153 5 0 0 0 - - -;
#X obj 482 133 OSCroute /PUSH;
#X obj 664 356 * 2000;
#X obj 715 381 + 2000;
#X msg 823 430 6000;
#X connect 0 0 7 0;
#X connect 0 0 1 0;
#X connect 0 0 39 0;
#X connect 0 0 65 0;
#X connect 2 0 22 0;
#X connect 2 0 19 0;
#X connect 2 0 60 0;
#X connect 4 0 3 1;
#X connect 4 0 3 0;
#X connect 5 0 4 1;
#X connect 6 0 5 0;
#X connect 7 0 8 0;
#X connect 7 0 9 0;
#X connect 7 0 24 0;
#X connect 8 0 2 0;
#X connect 9 0 10 0;
#X connect 10 0 12 0;
#X connect 10 0 17 0;
#X connect 11 0 16 1;
#X connect 12 0 15 0;
#X connect 12 0 54 0;
#X connect 14 0 11 0;
#X connect 15 0 14 0;
#X connect 16 0 4 0;
#X connect 17 0 14 1;
#X connect 17 0 13 0;
#X connect 18 0 21 1;
#X connect 21 0 63 0;
#X connect 22 0 20 0;
#X connect 22 0 18 0;
#X connect 23 0 27 0;
#X connect 23 0 30 0;
#X connect 23 0 57 0;
#X connect 24 0 25 0;
#X connect 25 0 23 0;
#X connect 26 0 29 1;
#X connect 29 0 64 0;
#X connect 30 0 28 0;
#X connect 30 0 26 0;
#X connect 31 0 56 0;
#X connect 32 0 55 0;
#X connect 33 0 29 0;
#X connect 34 0 33 0;
#X connect 35 0 38 0;
#X connect 36 0 37 0;
#X connect 37 0 34 0;
#X connect 38 0 34 0;
#X connect 39 0 40 0;
#X connect 40 0 41 0;
#X connect 41 0 42 1;
#X connect 41 0 42 0;
#X connect 42 0 43 0;
#X connect 42 0 68 0;
#X connect 43 0 49 0;
#X connect 43 0 52 0;
#X connect 44 0 47 1;
#X connect 45 0 44 0;
#X connect 46 0 47 0;
#X connect 47 0 3 1;
#X connect 47 0 3 0;
#X connect 48 0 46 0;
#X connect 49 0 46 0;
#X connect 50 0 46 1;
#X connect 51 0 48 0;
#X connect 52 0 70 0;
#X connect 52 0 51 0;
#X connect 53 0 50 0;
#X connect 54 0 32 0;
#X connect 55 0 16 0;
#X connect 56 0 21 0;
#X connect 57 0 35 0;
#X connect 57 1 36 0;
#X connect 58 0 61 0;
#X connect 59 0 62 0;
#X connect 60 0 58 0;
#X connect 60 1 59 0;
#X connect 61 0 31 0;
#X connect 62 0 31 0;
#X connect 63 0 4 0;
#X connect 64 0 4 0;
#X connect 65 0 67 0;
#X connect 67 0 66 0;
#X connect 67 0 41 0;
#X connect 68 0 69 0;
#X connect 69 0 50 0;
#X connect 70 0 50 0;
