#N canvas 869 51 827 849 10;
#X obj 249 199 dumpOSC 7400;
#X obj 216 352 print;
#X obj 247 233 OSCroute /COG;
#X obj 298 302 OSCroute /PUSH;
#X floatatom 312 376 5 0 0 0 - - -;
#X obj 298 632 dac~;
#X obj 313 521 osc~;
#X obj 345 589 *~;
#X obj 415 548 dbtorms;
#X floatatom 415 517 5 0 0 0 - - -;
#X obj 312 424 * 100;
#X obj 308 468 + 400;
#X obj 427 300 OSCroute /NEUTRAL;
#X obj 388 373 bng 15 250 50 0 empty empty empty 17 7 0 10 -262144
-1 -1;
#X obj 459 377 bng 15 250 50 0 empty empty empty 17 7 0 10 -262144
-1 -1;
#X obj 405 463 line;
#X msg 471 423 50 500;
#X msg 394 420 90 300;
#X connect 0 0 2 0;
#X connect 2 0 1 0;
#X connect 2 0 3 0;
#X connect 2 0 12 0;
#X connect 3 0 4 0;
#X connect 3 0 13 0;
#X connect 4 0 10 0;
#X connect 6 0 7 0;
#X connect 7 0 5 1;
#X connect 7 0 5 0;
#X connect 8 0 7 1;
#X connect 9 0 8 0;
#X connect 10 0 11 0;
#X connect 11 0 6 0;
#X connect 12 0 14 0;
#X connect 13 0 17 0;
#X connect 14 0 16 0;
#X connect 15 0 9 0;
#X connect 16 0 15 0;
#X connect 17 0 15 0;
