#N canvas 0 0 1920 1080 36;
#X obj 902 930 dac~;
#X obj 1064 154 pink~;
#X obj 987 437 *~ 0.1;
#X floatatom 1159 307 5 0 0 0 - - -;
#X obj 1150 379 * 0.01;
#X obj 643 377 bp~;
#X obj 628 467 *~ 0.1;
#X floatatom 787 327 5 0 0 0 - - -;
#X obj 791 409 * 0.01;
#X floatatom 504 323 5 0 0 0 - - -;
#X floatatom 696 250 5 0 0 0 - - -;
#X obj 163 204 float;
#X floatatom 338 195 5 0 0 0 - - -;
#X obj 339 133 + 1;
#X obj 169 58 bng 15 250 50 0 empty empty empty 17 7 0 10 -262144 -1
-1;
#X msg 238 34 stop;
#X obj 382 35 bng 15 250 50 0 empty empty empty 17 7 0 10 -262144 -1
-1;
#X obj 114 117 metro 10;
#X obj 425 265 % 500;
#N canvas -9 -9 1920 978 BandpassSweep 1;
#X obj 775 596 bp~;
#X obj 768 664 *~ 0.1;
#X floatatom 927 524 5 0 0 0 - - -;
#X obj 931 606 * 0.01;
#X floatatom 644 520 5 0 0 0 - - -;
#X floatatom 836 447 5 0 0 0 - - -;
#X obj 303 401 float;
#X floatatom 478 392 5 0 0 0 - - -;
#X obj 479 330 + 1;
#X obj 309 255 bng 15 250 50 0 empty empty empty 17 7 0 10 -262144
-1 -1;
#X msg 378 231 stop;
#X obj 522 232 bng 15 250 50 0 empty empty empty 17 7 0 10 -262144
-1 -1;
#X obj 254 314 metro 10;
#X obj 565 462 % 500;
#X obj 480 42 inlet;
#X obj 697 873 outlet~;
#X obj 212 44 inlet~;
#X obj 709 72 inlet;
#X connect 0 0 1 0;
#X connect 1 0 15 0;
#X connect 2 0 3 0;
#X connect 3 0 1 1;
#X connect 4 0 0 1;
#X connect 5 0 0 2;
#X connect 6 0 7 0;
#X connect 7 0 8 0;
#X connect 7 0 13 0;
#X connect 8 0 6 1;
#X connect 9 0 12 0;
#X connect 10 0 12 0;
#X connect 11 0 10 0;
#X connect 12 0 6 0;
#X connect 13 0 4 0;
#X connect 14 0 9 0;
#X connect 16 0 0 0;
#X connect 17 0 13 1;
#X restore 1149 806 pd BandpassSweep;
#X connect 1 0 2 0;
#X connect 1 0 5 0;
#X connect 2 0 0 0;
#X connect 2 0 0 1;
#X connect 3 0 4 0;
#X connect 4 0 2 1;
#X connect 5 0 6 0;
#X connect 6 0 0 0;
#X connect 7 0 8 0;
#X connect 8 0 6 1;
#X connect 9 0 5 1;
#X connect 10 0 5 2;
#X connect 11 0 12 0;
#X connect 12 0 13 0;
#X connect 12 0 18 0;
#X connect 13 0 11 1;
#X connect 14 0 17 0;
#X connect 15 0 17 0;
#X connect 16 0 15 0;
#X connect 17 0 11 0;
#X connect 18 0 9 0;
