#N canvas 0 0 1920 975 24;
#X obj 779 730 dac~;
#X obj 444 155 pink~;
#X obj 797 634 *~;
#X obj 920 623 dbtorms;
#X floatatom 922 575 5 0 0 0 - - -;
#X floatatom 1090 411 5 0 0 0 - - -;
#X obj 1097 222 bng 15 250 50 0 empty empty empty 17 7 0 10 -262144
-1 -1;
#X obj 1080 358 random 2;
#X obj 1155 247 loadbang;
#X obj 921 456 *~;
#X obj 918 388 osc~ 10000;
#X floatatom 961 249 5 0 0 0 - - -;
#X obj 951 196 random 2000;
#X obj 943 305 + 5000;
#X obj 1094 305 metro 50;
#X obj 1072 467 * 4;
#N canvas 560 228 1317 589 chirp 1;
#X floatatom 68 274 5 0 0 0 - - -;
#X obj 75 85 bng 15 250 50 0 empty empty empty 17 7 0 10 -262144 -1
-1;
#X obj 58 221 random 2;
#X obj 97 105 loadbang;
#X obj -101 319 *~;
#X obj -104 251 osc~ 10000;
#X floatatom -61 112 5 0 0 0 - - -;
#X obj -66 72 random 2000;
#X obj -79 168 + 5000;
#X obj 72 168 metro 50;
#X obj 50 330 * 4;
#X obj -89 439 outlet~;
#X obj -33 20 inlet;
#X obj 294 40 inlet;
#X obj -165 68 inlet;
#X connect 0 0 10 0;
#X connect 1 0 9 0;
#X connect 2 0 0 0;
#X connect 3 0 9 0;
#X connect 4 0 11 0;
#X connect 5 0 4 0;
#X connect 6 0 8 0;
#X connect 7 0 6 0;
#X connect 8 0 5 0;
#X connect 9 0 2 0;
#X connect 9 0 7 0;
#X connect 10 0 4 1;
#X connect 12 0 7 1;
#X connect 13 0 9 1;
#X connect 13 0 1 0;
#X connect 14 0 8 1;
#X restore 368 404 pd chirp;
#X floatatom 305 331 5 0 0 0 - - -;
#X floatatom 386 330 5 0 0 0 - - -;
#X floatatom 486 331 5 0 0 0 - - -;
#X obj 380 544 *~;
#X obj 503 533 dbtorms;
#X floatatom 505 485 5 0 0 0 - - -;
#N canvas 560 228 1317 589 chirp 0;
#X floatatom 68 274 5 0 0 0 - - -;
#X obj 75 85 bng 15 250 50 0 empty empty empty 17 7 0 10 -262144 -1
-1;
#X obj 58 221 random 2;
#X obj 97 105 loadbang;
#X obj -101 319 *~;
#X obj -104 251 osc~ 10000;
#X floatatom -61 112 5 0 0 0 - - -;
#X obj -66 72 random 2000;
#X obj -79 168 + 5000;
#X obj 72 168 metro 50;
#X obj 50 330 * 4;
#X obj -89 439 outlet~;
#X obj -33 20 inlet;
#X obj 294 40 inlet;
#X obj -165 68 inlet;
#X connect 0 0 10 0;
#X connect 1 0 9 0;
#X connect 2 0 0 0;
#X connect 3 0 9 0;
#X connect 4 0 11 0;
#X connect 5 0 4 0;
#X connect 6 0 8 0;
#X connect 7 0 6 0;
#X connect 8 0 5 0;
#X connect 9 0 2 0;
#X connect 9 0 7 0;
#X connect 10 0 4 1;
#X connect 12 0 7 1;
#X connect 13 0 9 1;
#X connect 13 0 1 0;
#X connect 14 0 8 1;
#X restore 1366 483 pd chirp;
#X floatatom 1303 410 5 0 0 0 - - -;
#X floatatom 1384 409 5 0 0 0 - - -;
#X floatatom 1484 410 5 0 0 0 - - -;
#X obj 1378 623 *~;
#X obj 1501 612 dbtorms;
#X floatatom 1503 564 5 0 0 0 - - -;
#X obj 550 187 bp~;
#X floatatom 532 64 5 0 0 0 - - -;
#X floatatom 610 108 5 0 0 0 - - -;
#X obj 650 283 *~;
#X obj 693 239 *~;
#X obj 773 232 dbtorms;
#X floatatom 796 197 5 0 0 0 - - -;
#X obj 693 144 osc~ 0.1;
#N canvas 789 6 753 507 wave 1;
#X obj 148 239 pink~;
#X obj 254 271 bp~;
#X floatatom 236 148 5 0 0 0 - - -;
#X floatatom 314 192 5 0 0 0 - - -;
#X obj 354 367 *~;
#X obj 397 323 *~;
#X obj 477 316 dbtorms;
#X floatatom 500 281 5 0 0 0 - - -;
#X obj 397 228 osc~ 0.1;
#X obj 559 47 inlet;
#X obj 195 48 inlet;
#X obj 292 54 inlet;
#X obj 424 44 inlet;
#X obj 331 458 outlet~;
#X connect 0 0 1 0;
#X connect 1 0 4 0;
#X connect 2 0 1 1;
#X connect 3 0 1 2;
#X connect 4 0 13 0;
#X connect 5 0 4 1;
#X connect 6 0 5 1;
#X connect 7 0 6 0;
#X connect 8 0 5 0;
#X connect 9 0 7 0;
#X connect 10 0 2 0;
#X connect 11 0 3 0;
#X connect 12 0 8 0;
#X restore 909 28 pd wave;
#X floatatom 840 -59 5 0 0 0 - - -;
#X floatatom 907 -56 5 0 0 0 - - -;
#X floatatom 998 -54 5 0 0 0 - - -;
#X floatatom 1071 -49 5 0 0 0 - - -;
#X obj 1565 -17 sel 0 1;
#X obj 1651 -145 bng 15 250 50 0 empty empty empty 17 7 0 10 -262144
-1 -1;
#X obj 1576 78 line;
#X floatatom 1590 127 5 0 0 0 - - -;
#X obj 1571 -41 tgl 15 0 empty empty empty 17 7 0 10 -262144 -1 -1
0 1;
#X obj 1597 -90 metro 2000;
#X obj 1377 213 osc~;
#X obj 1403 290 *~;
#X obj 1526 279 dbtorms;
#X floatatom 1528 231 5 0 0 0 - - -;
#X msg 1696 43 1000 1000;
#X msg 1542 40 4000 1000;
#X obj 1228 -67 sel 0 1;
#X obj 1228 -165 bng 15 250 50 0 empty empty empty 17 7 0 10 -262144
-1 -1;
#X obj 1239 28 line;
#X floatatom 1253 77 5 0 0 0 - - -;
#X obj 1234 -91 tgl 15 0 empty empty empty 17 7 0 10 -262144 -1 -1
0 1;
#X obj 1260 -140 metro 2000;
#X msg 1359 -7 1000 1000;
#X msg 1205 -10 4000 1000;
#X obj 1300 182 osc~;
#X obj 1442 -82 delay 200;
#X floatatom 1482 -35 5 0 0 0 - - -;
#X obj 1410 -164 random 300;
#N canvas 789 6 753 507 wave 0;
#X obj 148 239 pink~;
#X obj 254 271 bp~;
#X floatatom 236 148 5 0 0 0 - - -;
#X floatatom 314 192 5 0 0 0 - - -;
#X obj 354 367 *~;
#X obj 397 323 *~;
#X obj 477 316 dbtorms;
#X floatatom 500 281 5 0 0 0 - - -;
#X obj 397 228 osc~ 0.1;
#X obj 559 47 inlet;
#X obj 195 48 inlet;
#X obj 292 54 inlet;
#X obj 424 44 inlet;
#X obj 331 458 outlet~;
#X connect 0 0 1 0;
#X connect 1 0 4 0;
#X connect 2 0 1 1;
#X connect 3 0 1 2;
#X connect 4 0 13 0;
#X connect 5 0 4 1;
#X connect 6 0 5 1;
#X connect 7 0 6 0;
#X connect 8 0 5 0;
#X connect 9 0 7 0;
#X connect 10 0 2 0;
#X connect 11 0 3 0;
#X connect 12 0 8 0;
#X restore 596 -62 pd wave;
#X floatatom 527 -149 5 0 0 0 - - -;
#X floatatom 594 -146 5 0 0 0 - - -;
#X floatatom 685 -144 5 0 0 0 - - -;
#X floatatom 758 -139 5 0 0 0 - - -;
#N canvas 789 6 753 507 wave 0;
#X obj 148 239 pink~;
#X obj 254 271 bp~;
#X floatatom 236 148 5 0 0 0 - - -;
#X floatatom 314 192 5 0 0 0 - - -;
#X obj 354 367 *~;
#X obj 397 323 *~;
#X obj 477 316 dbtorms;
#X floatatom 500 281 5 0 0 0 - - -;
#X obj 397 228 osc~ 0.1;
#X obj 559 47 inlet;
#X obj 195 48 inlet;
#X obj 292 54 inlet;
#X obj 424 44 inlet;
#X obj 331 458 outlet~;
#X connect 0 0 1 0;
#X connect 1 0 4 0;
#X connect 2 0 1 1;
#X connect 3 0 1 2;
#X connect 4 0 13 0;
#X connect 5 0 4 1;
#X connect 6 0 5 1;
#X connect 7 0 6 0;
#X connect 8 0 5 0;
#X connect 9 0 7 0;
#X connect 10 0 2 0;
#X connect 11 0 3 0;
#X connect 12 0 8 0;
#X restore 268 -61 pd wave;
#X floatatom 199 -148 5 0 0 0 - - -;
#X floatatom 266 -145 5 0 0 0 - - -;
#X floatatom 357 -143 5 0 0 0 - - -;
#X floatatom 430 -138 5 0 0 0 - - -;
#X connect 1 0 2 0;
#X connect 1 0 30 0;
#X connect 2 0 0 0;
#X connect 2 0 0 1;
#X connect 3 0 2 1;
#X connect 4 0 3 0;
#X connect 5 0 15 0;
#X connect 6 0 14 0;
#X connect 7 0 5 0;
#X connect 8 0 14 0;
#X connect 9 0 2 0;
#X connect 10 0 9 0;
#X connect 11 0 13 0;
#X connect 12 0 11 0;
#X connect 13 0 10 0;
#X connect 14 0 7 0;
#X connect 14 0 12 0;
#X connect 15 0 9 1;
#X connect 16 0 20 0;
#X connect 17 0 16 0;
#X connect 18 0 16 1;
#X connect 19 0 16 2;
#X connect 20 0 0 0;
#X connect 21 0 20 1;
#X connect 22 0 21 0;
#X connect 23 0 27 0;
#X connect 24 0 23 0;
#X connect 25 0 23 1;
#X connect 26 0 23 2;
#X connect 27 0 0 1;
#X connect 28 0 27 1;
#X connect 29 0 28 0;
#X connect 30 0 33 0;
#X connect 31 0 30 1;
#X connect 32 0 30 2;
#X connect 33 0 0 0;
#X connect 34 0 33 1;
#X connect 35 0 34 1;
#X connect 36 0 35 0;
#X connect 37 0 34 0;
#X connect 38 0 0 1;
#X connect 39 0 38 0;
#X connect 40 0 38 1;
#X connect 41 0 38 2;
#X connect 42 0 38 3;
#X connect 43 0 54 0;
#X connect 43 1 53 0;
#X connect 44 0 48 0;
#X connect 45 0 46 0;
#X connect 46 0 49 0;
#X connect 47 0 43 0;
#X connect 48 0 47 0;
#X connect 48 0 64 0;
#X connect 48 0 66 0;
#X connect 49 0 50 0;
#X connect 50 0 0 1;
#X connect 51 0 50 1;
#X connect 52 0 51 0;
#X connect 53 0 45 0;
#X connect 54 0 45 0;
#X connect 55 0 62 0;
#X connect 55 1 61 0;
#X connect 56 0 60 0;
#X connect 57 0 58 0;
#X connect 58 0 63 0;
#X connect 59 0 55 0;
#X connect 60 0 59 0;
#X connect 61 0 57 0;
#X connect 62 0 57 0;
#X connect 63 0 50 0;
#X connect 64 0 56 0;
#X connect 66 0 64 1;
#X connect 66 0 65 0;
#X connect 67 0 0 0;
#X connect 68 0 67 0;
#X connect 69 0 67 1;
#X connect 70 0 67 2;
#X connect 71 0 67 3;
#X connect 72 0 0 0;
#X connect 73 0 72 0;
#X connect 74 0 72 1;
#X connect 75 0 72 2;
#X connect 76 0 72 3;
