#N canvas 414 115 657 671 16;
#X obj 139 367 osc~;
#X obj 133 524 dac~;
#X obj 101 472 *~;
#X obj 438 328 dbtorms;
#X floatatom 448 285 5 0 0 0 - - -;
#X obj 64 56 bng 15 250 50 0 empty empty empty 17 7 0 10 -262144 -1
-1;
#X obj 45 156 float;
#X obj 120 174 + 1;
#X msg 153 74 stop;
#X floatatom -4 217 5 0 0 0 - - -;
#X obj 63 209 select 1 2 3 4 5;
#X floatatom 213 141 5 0 0 0 - - -;
#X floatatom 7 274 5 0 0 0 - - -;
#X floatatom 68 270 5 0 0 0 - - -;
#X floatatom 124 268 5 0 0 0 - - -;
#X floatatom 183 269 5 0 0 0 - - -;
#X obj 74 433 *~;
#X obj 13 376 osc~ 1333;
#X floatatom -1 316 5 0 0 0 - - -;
#X obj 207 369 osc~ 1333;
#X floatatom 238 311 5 0 0 0 - - -;
#X obj 190 475 *~;
#X obj 168 438 *~;
#X floatatom 312 232 5 0 0 0 - - -;
#X obj -44 -6 bng 15 250 50 0 empty empty empty 17 7 0 10 -262144 -1
-1;
#X obj 266 278 * 0.01;
#X obj 117 318 * 1;
#X obj 231 338 * 1;
#X obj 16 345 * 1;
#X obj 344 149 random 200;
#X obj 364 196 - 100;
#X floatatom 238 87 5 0 0 0 - - -;
#X floatatom 15 -16 5 0 0 0 - - -;
#X obj 48 111 metro 200;
#X obj -44 19 metro 1300;
#X connect 0 0 16 1;
#X connect 0 0 22 1;
#X connect 2 0 1 0;
#X connect 3 0 2 1;
#X connect 3 0 21 1;
#X connect 4 0 3 0;
#X connect 5 0 4 0;
#X connect 5 0 29 0;
#X connect 5 0 33 0;
#X connect 6 0 7 0;
#X connect 7 0 6 1;
#X connect 7 0 10 0;
#X connect 7 0 9 0;
#X connect 8 0 33 0;
#X connect 10 0 12 0;
#X connect 10 1 13 0;
#X connect 10 2 14 0;
#X connect 10 3 15 0;
#X connect 10 4 8 0;
#X connect 10 4 11 0;
#X connect 11 0 6 1;
#X connect 11 0 3 0;
#X connect 12 0 26 0;
#X connect 13 0 26 0;
#X connect 14 0 26 0;
#X connect 15 0 26 0;
#X connect 16 0 2 0;
#X connect 17 0 16 0;
#X connect 18 0 28 0;
#X connect 19 0 22 0;
#X connect 20 0 27 0;
#X connect 21 0 1 1;
#X connect 22 0 21 0;
#X connect 23 0 25 0;
#X connect 24 0 34 0;
#X connect 25 0 26 1;
#X connect 25 0 28 1;
#X connect 25 0 27 1;
#X connect 26 0 0 0;
#X connect 27 0 19 0;
#X connect 28 0 17 0;
#X connect 29 0 30 0;
#X connect 30 0 23 0;
#X connect 31 0 33 1;
#X connect 32 0 34 1;
#X connect 33 0 6 0;
#X connect 34 0 5 0;
