#N canvas 0 0 1914 990 24;
#X obj 668 966 dac~;
#X obj 561 290 pink~;
#X obj 842 809 dbtorms;
#X obj 792 924 *~;
#X floatatom 847 755 5 0 0 0 - - -;
#X obj 608 874 *~;
#X obj 300 811 *~;
#X obj 124 803 *~;
#X obj 782 645 bp~;
#X floatatom 844 614 5 0 0 0 - - -;
#X floatatom 822 581 5 0 0 0 - - -;
#X obj 738 577 *~;
#X floatatom 896 368 5 0 0 0 - - -;
#X obj 610 654 bp~;
#X floatatom 672 623 5 0 0 0 - - -;
#X floatatom 650 590 5 0 0 0 - - -;
#X obj 566 586 *~;
#X floatatom 724 377 5 0 0 0 - - -;
#X obj 818 494 osc~;
#X obj 646 503 osc~;
#X obj 1142 625 osc~ 80;
#X obj 1206 752 dbtorms;
#X obj 1115 812 *~;
#X floatatom 1211 698 5 0 0 0 - - -;
#X obj 1656 781 dbtorms;
#X obj 1565 841 *~;
#X floatatom 1661 727 5 0 0 0 - - -;
#X obj 1592 654 osc~ 165;
#X obj 1350 214 dbtorms;
#X obj 1259 274 *~;
#X floatatom 1355 160 5 0 0 0 - - -;
#X obj 1286 87 osc~ 330;
#X obj 1666 368 dbtorms;
#X obj 1575 428 *~;
#X floatatom 1671 314 5 0 0 0 - - -;
#X obj 1602 241 osc~ 666;
#X obj 1487 833 *~;
#X obj 1407 417 *~;
#X obj 1455 902 osc~ 1;
#X obj 1418 466 osc~ 0.7;
#X obj 1117 239 *~;
#X floatatom 1636 535 5 0 0 0 - - -;
#X obj 1680 603 *;
#X obj 1729 479 metro 1500;
#X obj 1730 547 float;
#X obj 1813 562 + 1;
#X obj 1741 588 % 3;
#X obj 1757 429 bng 15 250 50 0 empty empty empty 17 7 0 10 -262144
-1 -1;
#X floatatom 1820 662 5 0 0 0 - - -;
#X obj 1747 633 + 1;
#X floatatom 835 136 5 0 0 0 - - -;
#X obj 879 204 *;
#X obj 929 148 float;
#X obj 956 30 bng 15 250 50 0 empty empty empty 17 7 0 10 -262144 -1
-1;
#X floatatom 1019 263 5 0 0 0 - - -;
#X obj 946 234 + 1;
#X obj 928 80 metro 1600;
#X obj 1012 163 + 1.5;
#X obj 940 189 % 4;
#X floatatom 1492 51 5 0 0 0 - - -;
#X obj 1536 119 *;
#X obj 1586 63 float;
#X obj 1669 78 + 1;
#X obj 1597 104 % 3;
#X obj 1613 -55 bng 15 250 50 0 empty empty empty 17 7 0 10 -262144
-1 -1;
#X floatatom 1676 178 5 0 0 0 - - -;
#X obj 1603 149 + 1;
#X obj 1585 -5 metro 5010;
#X obj 1128 288 osc~ 60;
#X obj 152 764 osc~ 0.03;
#X obj 331 774 osc~ 0.07;
#X connect 1 0 7 0;
#X connect 1 0 6 0;
#X connect 1 0 11 0;
#X connect 1 0 16 0;
#X connect 2 0 3 1;
#X connect 2 0 5 1;
#X connect 3 0 0 1;
#X connect 4 0 2 0;
#X connect 5 0 0 0;
#X connect 6 0 3 0;
#X connect 7 0 5 0;
#X connect 8 0 3 0;
#X connect 9 0 8 2;
#X connect 10 0 8 1;
#X connect 11 0 8 0;
#X connect 12 0 18 0;
#X connect 13 0 5 0;
#X connect 14 0 13 2;
#X connect 15 0 13 1;
#X connect 16 0 13 0;
#X connect 17 0 19 0;
#X connect 18 0 11 1;
#X connect 19 0 16 1;
#X connect 20 0 22 0;
#X connect 21 0 22 1;
#X connect 22 0 3 0;
#X connect 22 0 40 0;
#X connect 23 0 21 0;
#X connect 24 0 25 1;
#X connect 25 0 36 0;
#X connect 26 0 24 0;
#X connect 27 0 25 0;
#X connect 28 0 29 1;
#X connect 29 0 40 0;
#X connect 30 0 28 0;
#X connect 31 0 29 0;
#X connect 32 0 33 1;
#X connect 33 0 37 0;
#X connect 34 0 32 0;
#X connect 35 0 33 0;
#X connect 36 0 5 0;
#X connect 36 0 37 0;
#X connect 37 0 5 0;
#X connect 38 0 36 1;
#X connect 39 0 37 1;
#X connect 40 0 3 0;
#X connect 41 0 42 0;
#X connect 42 0 27 0;
#X connect 43 0 44 0;
#X connect 43 0 41 0;
#X connect 44 0 45 0;
#X connect 44 0 46 0;
#X connect 45 0 44 1;
#X connect 46 0 49 0;
#X connect 47 0 43 0;
#X connect 49 0 42 1;
#X connect 49 0 48 0;
#X connect 50 0 51 0;
#X connect 51 0 20 0;
#X connect 52 0 57 0;
#X connect 52 0 58 0;
#X connect 53 0 56 0;
#X connect 54 0 68 0;
#X connect 55 0 51 1;
#X connect 55 0 54 0;
#X connect 56 0 52 0;
#X connect 56 0 50 0;
#X connect 57 0 52 1;
#X connect 58 0 55 0;
#X connect 59 0 60 0;
#X connect 60 0 31 0;
#X connect 61 0 62 0;
#X connect 61 0 63 0;
#X connect 62 0 61 1;
#X connect 63 0 66 0;
#X connect 64 0 67 0;
#X connect 65 0 38 0;
#X connect 66 0 60 1;
#X connect 66 0 65 0;
#X connect 67 0 61 0;
#X connect 67 0 59 0;
#X connect 68 0 40 1;
#X connect 69 0 7 1;
#X connect 70 0 6 1;
