#N canvas 142 183 1653 657 16;
#X obj 98 198 * 1;
#X obj 231 198 * 2;
#X obj 366 197 * 4;
#X obj 522 200 * 8;
#X obj 668 203 * 16;
#X obj 812 200 * 32;
#X obj 959 191 * 64;
#X obj 1085 183 * 128;
#X obj 1224 186 * 256;
#X obj 771 504 outlet~;
#X obj 887 26 inlet;
#X obj 1398 191 * 512;
#X obj 69 276 shepVoice;
#X obj 210 275 shepVoice;
#X obj 351 273 shepVoice;
#X obj 495 273 shepVoice;
#X obj 633 282 shepVoice;
#X obj 783 276 shepVoice;
#X obj 954 270 shepVoice;
#X obj 1119 263 shepVoice;
#X obj 1272 264 shepVoice;
#X obj 1445 264 shepVoice;
#X connect 0 0 12 0;
#X connect 1 0 13 0;
#X connect 2 0 14 0;
#X connect 3 0 15 0;
#X connect 4 0 16 0;
#X connect 5 0 17 0;
#X connect 6 0 18 0;
#X connect 7 0 19 0;
#X connect 8 0 20 0;
#X connect 10 0 0 0;
#X connect 10 0 1 0;
#X connect 10 0 2 0;
#X connect 10 0 3 0;
#X connect 10 0 4 0;
#X connect 10 0 5 0;
#X connect 10 0 6 0;
#X connect 10 0 7 0;
#X connect 10 0 8 0;
#X connect 10 0 11 0;
#X connect 11 0 21 0;
#X connect 12 0 9 0;
#X connect 13 0 9 0;
#X connect 14 0 9 0;
#X connect 15 0 9 0;
#X connect 16 0 9 0;
#X connect 17 0 9 0;
#X connect 18 0 9 0;
#X connect 19 0 9 0;
#X connect 20 0 9 0;
#X connect 21 0 9 0;
