#N canvas 0 0 1920 978 16;
#X obj 760 522 shepTone;
#X obj 691 323 mtof;
#X obj 762 814 dac~;
#X obj 877 523 r volume;
#X floatatom 1345 359 5 0 90 0 - - -;
#X obj 875 561 dbtorms;
#X obj 1346 394 s volume;
#X obj 1099 147 s attack;
#X obj 1204 150 s decay;
#X obj 1294 149 s sustain;
#X obj 1401 147 s release;
#X floatatom 1098 116 5 0 0 0 - - -;
#X floatatom 1203 123 5 0 0 0 - - -;
#X floatatom 1293 107 5 0 0 0 - - -;
#X floatatom 1402 116 5 0 0 0 - - -;
#X obj 863 755 *~;
#X floatatom 270 451 5 0 100 0 - - -;
#X obj 254 501 s droneVolume;
#X floatatom 188 554 0 0 0 0 - - -;
#X obj 190 591 s dronePitch;
#X floatatom 343 555 5 0 2 0 - - -;
#X obj 341 595 s droneVibratoDepth;
#X obj 710 751 *~;
#X obj 256 221 osc~;
#X obj 319 228 osc~;
#X obj 183 227 osc~;
#X floatatom 249 114 5 0 0 0 - - -;
#X obj 248 79 mtof;
#X obj 352 120 r droneVibratoDepth;
#X obj 248 45 r dronePitch;
#X obj 402 263 dbtorms;
#X obj 406 224 r droneVolume;
#X obj 41 199 osc~;
#X obj 325 351 *~;
#X obj 24 246 *~ 0.3;
#X obj 325 306 +~;
#X obj 196 325 +~;
#X obj 208 365 *~;
#X floatatom 282 641 5 0 200 0 - - -;
#X obj 280 681 s droneLow;
#X obj 96 105 r droneLow;
#X obj 272 559 bng 15 250 50 0 empty empty empty 17 7 0 10 -262144
-1 -1;
#X obj 44 155 / 2;
#X obj 300 172 - 0.3;
#X obj 183 167 + 0.3;
#X obj 676 -75 r delta;
#X obj 1226 401 s delta;
#X floatatom 1227 346 5 0 0 0 - - -;
#X obj 1223 292 bng 15 250 50 0 empty empty empty 17 7 0 10 -262144
-1 -1;
#X floatatom 831 18 5 0 0 0 - - -;
#X obj 773 -1 +;
#X obj 836 216 spigot;
#X obj 1008 290 % 12;
#X obj 750 478 line;
#X obj 668 383 pack;
#X obj 800 391 mtof;
#X obj 884 351 f;
#X obj 900 274 bng 15 250 50 0 empty empty empty 17 7 0 10 -262144
-1 -1;
#X obj 686 285 f;
#X obj 639 209 bng 15 250 50 0 empty empty empty 17 7 0 10 -262144
-1 -1;
#X obj 651 242 delay 1;
#X obj 740 128 delay 1;
#X obj 796 167 f;
#X msg 794 430 set \$1;
#X obj 684 20 abs;
#X obj 892 317 delay 100;
#X obj 918 216 spigot;
#X obj 776 275 * 30;
#X obj 1027 91 + 15;
#X obj 1027 62 * 40;
#X obj 910 144 > 23;
#X obj 964 148 < 12;
#X obj 1011 320 + 12;
#X obj 897 -36 r pitch;
#X connect 0 0 15 0;
#X connect 0 0 22 0;
#X connect 1 0 54 0;
#X connect 3 0 5 0;
#X connect 4 0 6 0;
#X connect 5 0 15 1;
#X connect 5 0 22 1;
#X connect 11 0 7 0;
#X connect 12 0 8 0;
#X connect 13 0 9 0;
#X connect 14 0 10 0;
#X connect 15 0 2 1;
#X connect 16 0 17 0;
#X connect 18 0 19 0;
#X connect 20 0 21 0;
#X connect 20 0 41 0;
#X connect 22 0 2 0;
#X connect 23 0 35 1;
#X connect 23 0 36 1;
#X connect 24 0 35 1;
#X connect 25 0 36 1;
#X connect 26 0 23 0;
#X connect 26 0 42 0;
#X connect 26 0 43 0;
#X connect 26 0 44 0;
#X connect 27 0 26 0;
#X connect 28 0 43 1;
#X connect 28 0 44 1;
#X connect 29 0 27 0;
#X connect 30 0 33 1;
#X connect 30 0 37 1;
#X connect 31 0 30 0;
#X connect 32 0 34 0;
#X connect 33 0 22 0;
#X connect 34 0 35 0;
#X connect 34 0 36 0;
#X connect 35 0 33 0;
#X connect 36 0 37 0;
#X connect 37 0 15 0;
#X connect 38 0 39 0;
#X connect 40 0 34 1;
#X connect 41 0 18 0;
#X connect 42 0 32 0;
#X connect 43 0 24 0;
#X connect 44 0 25 0;
#X connect 45 0 59 0;
#X connect 45 0 50 0;
#X connect 45 0 64 0;
#X connect 47 0 46 0;
#X connect 48 0 47 0;
#X connect 49 0 50 1;
#X connect 49 0 58 1;
#X connect 49 0 61 0;
#X connect 49 0 62 1;
#X connect 49 0 70 0;
#X connect 49 0 71 0;
#X connect 50 0 49 0;
#X connect 51 0 52 0;
#X connect 51 0 57 0;
#X connect 52 0 72 0;
#X connect 53 0 0 0;
#X connect 54 0 53 0;
#X connect 55 0 63 0;
#X connect 56 0 49 0;
#X connect 56 0 55 0;
#X connect 57 0 65 0;
#X connect 58 0 1 0;
#X connect 59 0 60 0;
#X connect 60 0 58 0;
#X connect 61 0 62 0;
#X connect 62 0 66 0;
#X connect 62 0 51 0;
#X connect 63 0 53 0;
#X connect 64 0 67 0;
#X connect 64 0 69 0;
#X connect 65 0 56 0;
#X connect 66 0 57 0;
#X connect 66 0 52 0;
#X connect 67 0 54 1;
#X connect 67 0 65 1;
#X connect 68 0 11 0;
#X connect 69 0 68 0;
#X connect 70 0 51 1;
#X connect 71 0 66 1;
#X connect 72 0 56 1;
#X connect 73 0 49 0;
