#N canvas 1095 151 1251 1026 12;
#X obj 34 550 dac~;
#X obj 65 32 notein;
#X obj 275 27 ctlin;
#X floatatom 326 153 5 0 0 0 - - -;
#X floatatom 259 151 5 0 0 0 - - -;
#X obj 322 104 spigot;
#X obj 360 75 == 1;
#X obj 264 105 spigot;
#X obj 302 76 == 2;
#X text 262 131 breath;
#X text 329 132 bite;
#X obj 36 420 osc~;
#X obj 225 360 dbtorms~;
#X obj 28 520 *~;
#X obj 226 259 / 127;
#X obj 224 335 line~;
#X msg 224 311 \$1 50;
#X obj 73 112 spigot;
#X obj 111 83 > 0;
#X obj 375 340 dbtorms~;
#X obj 376 239 / 127;
#X obj 374 315 line~;
#X msg 374 291 \$1 50;
#X obj 289 459 osc~;
#X obj 375 265 * 100;
#X obj 333 453 osc~;
#X obj 288 429 * 3;
#X obj 332 423 * 5;
#X obj 377 451 osc~;
#X obj 376 421 * 7;
#X obj 417 450 osc~;
#X obj 416 420 * 9;
#X obj 287 526 *~;
#X obj 333 526 *~;
#X obj 378 526 *~;
#X obj 418 524 *~;
#X obj 293 495 *~ 0.8;
#X obj 351 495 *~ 0.6;
#X obj 408 493 *~ 0.4;
#X obj 467 492 *~ 0.2;
#X obj 159 514 e_tanh;
#X obj 225 285 * 90;
#X obj 72 162 mtof;
#X obj 41 381 +;
#X obj 163 45 bendin;
#X obj 163 86 / 16383;
#X obj 164 115 - 0.5;
#X obj 147 151 t b f;
#X msg 143 181 2;
#X obj 154 210 pow;
#X floatatom 154 252 5 0 0 0 - - -;
#X obj 44 348 * 1;
#X floatatom 45 315 5 0 0 0 - - -;
#X obj 117 306 t b f;
#X connect 1 0 17 0;
#X connect 1 1 18 0;
#X connect 2 0 5 0;
#X connect 2 0 7 0;
#X connect 2 1 6 0;
#X connect 2 1 8 0;
#X connect 3 0 20 0;
#X connect 4 0 14 0;
#X connect 5 0 3 0;
#X connect 6 0 5 1;
#X connect 7 0 4 0;
#X connect 8 0 7 1;
#X connect 11 0 13 0;
#X connect 12 0 13 1;
#X connect 13 0 0 0;
#X connect 13 0 0 1;
#X connect 14 0 41 0;
#X connect 15 0 12 0;
#X connect 16 0 15 0;
#X connect 17 0 42 0;
#X connect 18 0 17 1;
#X connect 19 0 36 0;
#X connect 19 0 37 0;
#X connect 19 0 38 0;
#X connect 19 0 39 0;
#X connect 20 0 24 0;
#X connect 21 0 19 0;
#X connect 22 0 21 0;
#X connect 23 0 32 0;
#X connect 24 0 22 0;
#X connect 25 0 33 0;
#X connect 26 0 23 0;
#X connect 27 0 25 0;
#X connect 28 0 34 0;
#X connect 29 0 28 0;
#X connect 30 0 35 0;
#X connect 31 0 30 0;
#X connect 32 0 40 0;
#X connect 33 0 40 0;
#X connect 34 0 40 0;
#X connect 35 0 40 0;
#X connect 36 0 32 1;
#X connect 37 0 33 1;
#X connect 38 0 34 1;
#X connect 39 0 35 1;
#X connect 40 0 13 0;
#X connect 41 0 16 0;
#X connect 42 0 52 0;
#X connect 43 0 11 0;
#X connect 43 0 29 0;
#X connect 43 0 31 0;
#X connect 43 0 27 0;
#X connect 43 0 26 0;
#X connect 44 0 45 0;
#X connect 45 0 46 0;
#X connect 46 0 47 0;
#X connect 47 0 48 0;
#X connect 47 1 49 1;
#X connect 48 0 49 0;
#X connect 49 0 50 0;
#X connect 50 0 53 0;
#X connect 51 0 43 0;
#X connect 52 0 51 0;
#X connect 53 0 52 0;
#X connect 53 1 51 1;
